<?xml version="1.0" encoding="utf-8"?>
<!-- Generator: Adobe Illustrator 25.2.3, SVG Export Plug-In . SVG Version: 6.00 Build 0)  -->
<svg width="496" height="150" version="1.1" id="Layer_1" xmlns="http://www.w3.org/2000/svg" xmlns:xlink="http://www.w3.org/1999/xlink" x="0px" y="0px"
	 viewBox="0 0 496 150" style="enable-background:new 0 0 496 150;" xml:space="preserve">
<style type="text/css">
	.st0{clip-path:url(#SVGID_2_);fill:#EEEEEE;}
	.st1{clip-path:url(#SVGID_4_);fill:#FFFFFF;}
	.st2{clip-path:url(#SVGID_6_);}
	.st3{clip-path:url(#SVGID_11_);}
	.st4{clip-path:url(#SVGID_12_);}
	.st5{clip-path:url(#SVGID_13_);}
	.st6{clip-path:url(#SVGID_14_);fill:#DB4437;}
	.st7{clip-path:url(#SVGID_14_);fill:#0F9D58;}
	.st8{clip-path:url(#SVGID_14_);fill:#FFCD40;}
	.st9{clip-path:url(#SVGID_14_);}
	.st10{fill:#F1F1F1;}
	.st11{fill:#4285F4;}
	.st12{clip-path:url(#SVGID_16_);fill:#212121;fill-opacity:5.000000e-02;}
	.st13{fill:#212121;fill-opacity:2.000000e-02;}
	.st14{fill:#FFFFFF;fill-opacity:5.000000e-02;}
	.st15{fill:#231F20;fill-opacity:0.1;}
	.st16{fill:url(#SVGID_17_);}
	.st17{fill:none;}
	.st18{fill:#5F6368;}
</style>
<g>
	<g>
		<defs>
			<path id="SVGID_1_" d="M23.9,27.1v87.7c0,4.1,3.4,7.5,7.5,7.5h95.2c4.1,0,7.5-3.4,7.5-7.5V27.1H23.9z M91.5,47.1h-25
				c-2.8,0-5-2.2-5-5s2.2-5,5-5h25c2.8,0,5,2.2,5,5S94.3,47.1,91.5,47.1z"/>
		</defs>
		<clipPath id="SVGID_2_">
			<use xlink:href="#SVGID_1_"  style="overflow:visible;"/>
		</clipPath>
		<path class="st0" d="M23.9,27.1h110.2v95.2H23.9V27.1z"/>
	</g>
	<g>
		<defs>
			<path id="SVGID_3_" d="M23.9,27.1v87.7c0,4.1,3.4,7.5,7.5,7.5h95.2c4.1,0,7.5-3.4,7.5-7.5V27.1H23.9z M91.5,47.1h-25
				c-2.8,0-5-2.2-5-5s2.2-5,5-5h25c2.8,0,5,2.2,5,5S94.3,47.1,91.5,47.1z"/>
		</defs>
		<clipPath id="SVGID_4_">
			<use xlink:href="#SVGID_3_"  style="overflow:visible;"/>
		</clipPath>
		<path class="st1" d="M91.5,37.1h-25c-2.8,0-5,2.2-5,5s2.2,5,5,5h25c2.8,0,5-2.2,5-5S94.3,37.1,91.5,37.1z"/>
	</g>
	<g>
		<defs>
			<path id="SVGID_5_" d="M23.9,27.1v87.7c0,4.1,3.4,7.5,7.5,7.5h95.2c4.1,0,7.5-3.4,7.5-7.5V27.1H23.9z M91.5,47.1h-25
				c-2.8,0-5-2.2-5-5s2.2-5,5-5h25c2.8,0,5,2.2,5,5S94.3,47.1,91.5,47.1z"/>
		</defs>
		<clipPath id="SVGID_6_">
			<use xlink:href="#SVGID_5_"  style="overflow:visible;"/>
		</clipPath>
		<g class="st2">
			<g>
				<defs>
					<circle id="SVGID_7_" cx="79" cy="114.7" r="47.6"/>
				</defs>
				<defs>
					<circle id="SVGID_8_" cx="79" cy="114.7" r="47.6"/>
				</defs>
				<defs>
					<circle id="SVGID_9_" cx="79" cy="114.7" r="47.6"/>
				</defs>
				<defs>
					<circle id="SVGID_10_" cx="79" cy="114.7" r="47.6"/>
				</defs>
				<clipPath id="SVGID_11_">
					<use xlink:href="#SVGID_7_"  style="overflow:visible;"/>
				</clipPath>
				<clipPath id="SVGID_12_" class="st3">
					<use xlink:href="#SVGID_8_"  style="overflow:visible;"/>
				</clipPath>
				<clipPath id="SVGID_13_" class="st4">
					<use xlink:href="#SVGID_9_"  style="overflow:visible;"/>
				</clipPath>
				<clipPath id="SVGID_14_" class="st5">
					<use xlink:href="#SVGID_10_"  style="overflow:visible;"/>
				</clipPath>
				<path class="st6" d="M39,67.1v58.4h21.3L79,93.1h47.6v-26H39z M39,67.1v58.4h21.3L79,93.1h47.6v-26H39z"/>
				<path class="st7" d="M31.4,162.3h45.3l21-21v-15.7l-37.5,0L31.4,76.1V162.3z M31.4,162.3h45.3l21-21v-15.7l-37.5,0L31.4,76.1
					V162.3z"/>
				<path class="st8" d="M79,93.1l18.7,32.4l-21,36.8h49.9V93.1H79z M79,93.1l18.7,32.4l-21,36.8h49.9V93.1H79z"/>
				<g class="st9">
					<circle class="st10" cx="79" cy="114.7" r="21.6"/>
					<circle class="st11" cx="79" cy="114.7" r="17.3"/>
				</g>
			</g>
			<g>
				<defs>
					<path id="SVGID_15_" d="M23.9,27.1v87.7c0,4.1,3.4,7.5,7.5,7.5h95.2c4.1,0,7.5-3.4,7.5-7.5V27.1H23.9z M91.5,47.1h-25
						c-2.8,0-5-2.2-5-5s2.2-5,5-5h25c2.8,0,5,2.2,5,5S94.3,47.1,91.5,47.1z"/>
				</defs>
				<clipPath id="SVGID_16_">
					<use xlink:href="#SVGID_15_"  style="overflow:visible;"/>
				</clipPath>
				<path class="st12" d="M23.9,27.1h110.2v47.6H23.9V27.1z"/>
			</g>
			<path class="st13" d="M23.9,74h110.2v0.6H23.9V74z"/>
			<path class="st14" d="M23.9,74.7h110.2v0.6H23.9V74.7z"/>
			<path class="st13" d="M91.5,47.1h-25c-2.7,0-4.8-2.1-5-4.7c0,0.1,0,0.2,0,0.3c0,2.8,2.2,5,5,5h25c2.8,0,5-2.2,5-5
				c0-0.1,0-0.2,0-0.3C96.4,45,94.2,47.1,91.5,47.1z M23.9,27.1v0.6h110.2v-0.6H23.9z"/>
			<path class="st15" d="M66.5,37.1h25c2.7,0,4.8,2.1,5,4.7c0-0.1,0-0.2,0-0.3c0-2.8-2.2-5-5-5h-25c-2.8,0-5,2.2-5,5
				c0,0.1,0,0.2,0,0.3C61.6,39.2,63.8,37.1,66.5,37.1z M126.6,121.6H31.4c-4.1,0-7.5-3.4-7.5-7.5v0.6c0,4.1,3.4,7.5,7.5,7.5h95.2
				c4.1,0,7.5-3.4,7.5-7.5v-0.6C134.1,118.2,130.7,121.6,126.6,121.6z"/>
			
				<radialGradient id="SVGID_17_" cx="91.3316" cy="48.3542" r="570.079" gradientTransform="matrix(0.25 0 0 -0.25 0.75 38.75)" gradientUnits="userSpaceOnUse">
				<stop  offset="0" style="stop-color:#FFFFFF;stop-opacity:0.1"/>
				<stop  offset="1" style="stop-color:#FFFFFF;stop-opacity:0"/>
			</radialGradient>
			<path class="st16" d="M23.9,27.1v87.7c0,4.1,3.4,7.5,7.5,7.5h95.2c4.1,0,7.5-3.4,7.5-7.5V27.1H23.9z M91.5,47.1h-25
				c-2.8,0-5-2.2-5-5s2.2-5,5-5h25c2.8,0,5,2.2,5,5S94.3,47.1,91.5,47.1z"/>
			<path class="st17" d="M18.9,14.5h120.2v120.2H18.9V14.5z"/>
		</g>
	</g>
</g>
<g>
	<g>
		<path class="st18" d="M174.1,105.7c-3.9,0-7.2-1.3-9.8-4c-2.6-2.6-4-5.9-4-9.9c0-3.9,1.3-7.2,4-9.9c2.6-2.6,5.9-4,9.8-4
			c4,0,7.2,1.4,9.7,4.3l-2.4,2.3c-1.8-2.2-4.3-3.4-7.4-3.4c-2.9,0-5.3,1-7.3,2.9c-2,1.9-3,4.5-3,7.7c0,3.2,1,5.7,3,7.7
			c2,1.9,4.4,2.9,7.3,2.9c3.2,0,5.9-1.3,8.1-3.8l2.4,2.4c-1.2,1.5-2.7,2.6-4.6,3.5C178.3,105.2,176.3,105.7,174.1,105.7z"/>
		<path class="st18" d="M191.1,78.6v8.4l-0.1,2.5h0.1c0.5-0.9,1.3-1.6,2.3-2.2c1.1-0.6,2.2-0.9,3.4-0.9c2.2,0,4,0.7,5.1,2.1
			c1.2,1.4,1.8,3.2,1.8,5.6v11.1h-3.4V94.5c0-3.4-1.5-5-4.5-5c-1.4,0-2.6,0.6-3.4,1.7c-0.9,1.1-1.3,2.4-1.3,3.9v10h-3.4V78.6H191.1z
			"/>
		<path class="st18" d="M211.1,105.1h-3.4V86.9h3.3v3h0.1c0.3-1,1.1-1.8,2.1-2.4c1.1-0.6,2.1-1,3.1-1c1,0,1.9,0.1,2.6,0.4l-1.3,3.2
			c-0.4-0.2-1-0.3-1.8-0.3c-1.2,0-2.3,0.5-3.3,1.5c-0.9,1-1.4,2.3-1.4,3.8V105.1z"/>
		<path class="st18" d="M221.6,89.1c1.8-1.8,4-2.8,6.7-2.8s4.9,0.9,6.7,2.8c1.8,1.8,2.6,4.1,2.6,6.9c0,2.8-0.9,5.1-2.6,6.9
			c-1.8,1.8-4,2.8-6.7,2.8s-4.9-0.9-6.7-2.8c-1.8-1.8-2.6-4.1-2.6-6.9C219,93.2,219.9,90.9,221.6,89.1z M224.2,100.8
			c1.2,1.2,2.6,1.8,4.2,1.8s3-0.6,4.2-1.8c1.2-1.2,1.8-2.8,1.8-4.8c0-2-0.6-3.6-1.8-4.8c-1.2-1.2-2.6-1.8-4.2-1.8s-3,0.6-4.2,1.8
			s-1.8,2.8-1.8,4.8C222.4,98,223,99.6,224.2,100.8z"/>
		<path class="st18" d="M240.4,105.1V86.9h3.3v2.5h0.1c0.5-0.9,1.3-1.6,2.4-2.2c1.1-0.6,2.1-0.9,3.2-0.9c2.8,0,4.7,1.2,5.7,3.5
			c1.5-2.3,3.6-3.5,6.3-3.5c2.1,0,3.8,0.7,4.8,2.1c1.1,1.4,1.6,3.2,1.6,5.6v11.1h-3.4V94.5c0-1.8-0.3-3.1-1-3.9s-1.7-1.1-3-1.1
			c-1.3,0-2.4,0.6-3.3,1.7c-0.9,1.1-1.3,2.4-1.3,3.9v10h-3.4V94.5c0-1.8-0.3-3.1-1-3.9c-0.7-0.8-1.7-1.1-3-1.1
			c-1.3,0-2.4,0.6-3.3,1.7c-0.9,1.1-1.3,2.4-1.3,3.9v10H240.4z"/>
		<path class="st18" d="M280.1,105.7c-2.7,0-5-0.9-6.7-2.7c-1.7-1.8-2.6-4.1-2.6-6.9c0-2.6,0.8-4.9,2.5-6.8s3.8-2.8,6.4-2.8
			c2.7,0,4.8,0.9,6.5,2.6s2.4,4.1,2.4,7l0,0.6h-14.3c0.1,1.8,0.7,3.3,1.8,4.3c1.1,1.1,2.4,1.6,3.9,1.6c2.4,0,4.1-1,5-3.1l3,1.3
			c-0.6,1.4-1.6,2.6-2.9,3.5C283.8,105.2,282.1,105.7,280.1,105.7z M285,93.8c-0.1-1-0.5-2-1.4-3c-0.9-0.9-2.2-1.4-3.9-1.4
			c-1.3,0-2.3,0.4-3.3,1.2s-1.6,1.8-1.9,3.2H285z"/>
		<path class="st18" d="M329.9,78.6l-7.1,26.5h-3.5l-5.7-17.5h-0.1l-5.7,17.5h-3.5l-7.4-26.5h3.6l5.6,20.8h0.1l5.7-17.3h3.2
			l5.7,17.3h0.1l5.3-20.8H329.9z"/>
		<path class="st18" d="M338.7,105.7c-2.7,0-5-0.9-6.7-2.7c-1.7-1.8-2.6-4.1-2.6-6.9c0-2.6,0.8-4.9,2.5-6.8s3.8-2.8,6.4-2.8
			c2.7,0,4.8,0.9,6.5,2.6s2.4,4.1,2.4,7l0,0.6h-14.3c0.1,1.8,0.7,3.3,1.8,4.3c1.1,1.1,2.4,1.6,3.9,1.6c2.4,0,4.1-1,5-3.1l3,1.3
			c-0.6,1.4-1.6,2.6-2.9,3.5C342.3,105.2,340.7,105.7,338.7,105.7z M343.6,93.8c-0.1-1-0.5-2-1.4-3c-0.9-0.9-2.2-1.4-3.9-1.4
			c-1.3,0-2.3,0.4-3.3,1.2s-1.6,1.8-1.9,3.2H343.6z"/>
		<path class="st18" d="M359.9,105.7c-1.4,0-2.6-0.3-3.7-0.9s-1.9-1.3-2.5-2.2h-0.1v2.5h-3.3V78.6h3.4v8.4l-0.1,2.5h0.1
			c0.5-0.9,1.4-1.6,2.5-2.2s2.3-0.9,3.7-0.9c2.3,0,4.4,0.9,6.1,2.8c1.7,1.9,2.6,4.1,2.6,6.9c0,2.7-0.9,5-2.6,6.9
			C364.3,104.7,362.3,105.7,359.9,105.7z M359.4,102.6c1.6,0,2.9-0.6,4.1-1.8s1.7-2.8,1.7-4.8c0-2-0.6-3.6-1.7-4.8s-2.5-1.8-4.1-1.8
			c-1.6,0-3,0.6-4.1,1.8c-1.1,1.2-1.7,2.8-1.7,4.8s0.6,3.6,1.7,4.8C356.4,102,357.8,102.6,359.4,102.6z"/>
		<path class="st18" d="M386.7,105.7c-1.9,0-3.8-0.6-5.6-1.9s-3-3-3.6-5.3l3.1-1.3c0.4,1.5,1.1,2.7,2.3,3.7s2.4,1.5,3.9,1.5
			c1.5,0,2.7-0.4,3.8-1.2c1-0.8,1.6-1.8,1.6-3.2c0-1.5-0.5-2.6-1.6-3.4c-1-0.8-2.7-1.5-5-2.2c-2.3-0.7-4.1-1.7-5.3-2.9
			c-1.2-1.2-1.8-2.7-1.8-4.5c0-1.9,0.8-3.6,2.3-5c1.5-1.4,3.5-2.1,5.9-2.1c2.2,0,4.1,0.6,5.5,1.7c1.4,1.1,2.3,2.3,2.7,3.7l-3.1,1.3
			c-0.2-0.8-0.8-1.6-1.6-2.3c-0.9-0.7-2-1.1-3.4-1.1c-1.3,0-2.4,0.4-3.3,1.1s-1.4,1.6-1.4,2.7c0,1,0.4,1.8,1.3,2.5
			c0.9,0.7,2.1,1.3,3.8,1.8c1.3,0.4,2.4,0.8,3.3,1.2c0.9,0.4,1.8,0.9,2.7,1.6c0.9,0.7,1.6,1.5,2,2.4c0.5,1,0.7,2.1,0.7,3.4
			c0,1.3-0.3,2.4-0.8,3.4c-0.5,1-1.2,1.8-2.1,2.4c-0.9,0.6-1.8,1-2.8,1.4C388.8,105.5,387.8,105.7,386.7,105.7z"/>
		<path class="st18" d="M406,105.4c-1.9,0-3.3-0.5-4.3-1.5s-1.5-2.4-1.5-4.3V90H397v-3.1h3.2v-5.5h3.4v5.5h4.4V90h-4.4v9.2
			c0,2,0.8,3,2.4,3c0.6,0,1.1-0.1,1.6-0.3l1.2,2.9C408,105.2,407.1,105.4,406,105.4z"/>
		<path class="st18" d="M412.7,89.1c1.8-1.8,4-2.8,6.7-2.8c2.7,0,4.9,0.9,6.7,2.8c1.8,1.8,2.6,4.1,2.6,6.9c0,2.8-0.9,5.1-2.6,6.9
			c-1.8,1.8-4,2.8-6.7,2.8c-2.7,0-4.9-0.9-6.7-2.8c-1.8-1.8-2.6-4.1-2.6-6.9C410.1,93.2,411,90.9,412.7,89.1z M415.2,100.8
			c1.2,1.2,2.6,1.8,4.2,1.8c1.6,0,3-0.6,4.2-1.8c1.2-1.2,1.8-2.8,1.8-4.8c0-2-0.6-3.6-1.8-4.8c-1.2-1.2-2.6-1.8-4.2-1.8
			c-1.6,0-3,0.6-4.2,1.8s-1.8,2.8-1.8,4.8C413.5,98,414.1,99.6,415.2,100.8z"/>
		<path class="st18" d="M434.9,105.1h-3.4V86.9h3.3v3h0.1c0.3-1,1.1-1.8,2.1-2.4c1.1-0.6,2.1-1,3.1-1c1,0,1.9,0.1,2.6,0.4l-1.3,3.2
			c-0.4-0.2-1-0.3-1.8-0.3c-1.2,0-2.3,0.5-3.3,1.5c-1,1-1.4,2.3-1.4,3.8V105.1z"/>
		<path class="st18" d="M452,105.7c-2.7,0-5-0.9-6.7-2.7c-1.7-1.8-2.6-4.1-2.6-6.9c0-2.6,0.8-4.9,2.5-6.8s3.8-2.8,6.4-2.8
			c2.7,0,4.8,0.9,6.5,2.6s2.4,4.1,2.4,7l0,0.6h-14.3c0.1,1.8,0.7,3.3,1.8,4.3c1.1,1.1,2.4,1.6,3.9,1.6c2.4,0,4.1-1,5-3.1l3,1.3
			c-0.6,1.4-1.6,2.6-2.9,3.5C455.6,105.2,454,105.7,452,105.7z M456.9,93.8c-0.1-1-0.5-2-1.4-3c-0.9-0.9-2.2-1.4-3.9-1.4
			c-1.3,0-2.3,0.4-3.3,1.2s-1.6,1.8-1.9,3.2H456.9z"/>
	</g>
	<g>
		<path class="st18" d="M162.3,63.9l7.6-20h2.9l7.6,20h-2.9l-1.9-5.4h-8.4l-2,5.4H162.3z M168,56.1h6.7l-3.3-9h-0.1L168,56.1z"/>
		<path class="st18" d="M185,63.9l-5.5-13.7h2.8l4,10.6h0.1l4.1-10.6h2.7l-5.6,13.7H185z"/>
		<path class="st18" d="M198.9,64.4c-1.5,0-2.7-0.4-3.7-1.3c-1-0.8-1.5-2-1.5-3.3c0-1.5,0.6-2.7,1.7-3.5c1.2-0.8,2.6-1.3,4.3-1.3
			c1.5,0,2.8,0.3,3.7,0.8v-0.4c0-1-0.3-1.8-1-2.4c-0.7-0.6-1.5-0.9-2.5-0.9c-0.7,0-1.4,0.2-2,0.5c-0.6,0.4-1,0.8-1.2,1.5l-2.4-1
			c0.3-0.8,0.9-1.6,1.9-2.3c0.9-0.7,2.2-1,3.7-1c1.8,0,3.2,0.5,4.4,1.5c1.2,1,1.7,2.5,1.7,4.3v8.3h-2.5V62h-0.1
			C202.4,63.6,200.9,64.4,198.9,64.4z M199.3,62c1.1,0,2-0.4,2.9-1.2s1.3-1.7,1.3-2.8c-0.7-0.6-1.8-0.9-3.3-0.9
			c-1.3,0-2.2,0.3-2.8,0.8c-0.6,0.5-1,1.2-1,1.9c0,0.7,0.3,1.2,0.9,1.6C197.9,61.8,198.5,62,199.3,62z"/>
		<path class="st18" d="M211.7,46.8c-0.4,0.4-0.8,0.5-1.3,0.5s-0.9-0.2-1.3-0.5c-0.4-0.4-0.5-0.8-0.5-1.3s0.2-0.9,0.5-1.3
			c0.4-0.4,0.8-0.5,1.3-0.5s0.9,0.2,1.3,0.5c0.4,0.4,0.5,0.8,0.5,1.3S212,46.4,211.7,46.8z M211.7,63.9h-2.6V50.2h2.6V63.9z"/>
		<path class="st18" d="M217.6,63.9H215v-20h2.6V63.9z"/>
		<path class="st18" d="M224.9,64.4c-1.5,0-2.7-0.4-3.7-1.3c-1-0.8-1.5-2-1.5-3.3c0-1.5,0.6-2.7,1.7-3.5c1.2-0.8,2.6-1.3,4.3-1.3
			c1.5,0,2.8,0.3,3.7,0.8v-0.4c0-1-0.3-1.8-1-2.4c-0.7-0.6-1.5-0.9-2.5-0.9c-0.7,0-1.4,0.2-2,0.5c-0.6,0.4-1,0.8-1.2,1.5l-2.4-1
			c0.3-0.8,0.9-1.6,1.9-2.3c0.9-0.7,2.2-1,3.7-1c1.8,0,3.2,0.5,4.4,1.5c1.2,1,1.7,2.5,1.7,4.3v8.3h-2.5V62h-0.1
			C228.4,63.6,226.9,64.4,224.9,64.4z M225.4,62c1.1,0,2-0.4,2.9-1.2s1.3-1.7,1.3-2.8c-0.7-0.6-1.8-0.9-3.3-0.9
			c-1.3,0-2.2,0.3-2.8,0.8c-0.6,0.5-1,1.2-1,1.9c0,0.7,0.3,1.2,0.9,1.6C224,61.8,224.6,62,225.4,62z"/>
		<path class="st18" d="M242.2,64.4c-1,0-2-0.2-2.8-0.7c-0.8-0.4-1.5-1-1.9-1.7h-0.1v1.9h-2.5v-20h2.6v6.3l-0.1,1.9h0.1
			c0.4-0.7,1-1.2,1.9-1.7s1.8-0.7,2.8-0.7c1.8,0,3.3,0.7,4.6,2.1c1.3,1.4,1.9,3.1,1.9,5.2c0,2.1-0.6,3.8-1.9,5.2
			C245.5,63.7,244,64.4,242.2,64.4z M241.8,62c1.2,0,2.2-0.5,3.1-1.4c0.9-0.9,1.3-2.1,1.3-3.6c0-1.5-0.4-2.7-1.3-3.6
			c-0.9-0.9-1.9-1.4-3.1-1.4c-1.2,0-2.2,0.4-3.1,1.3c-0.8,0.9-1.3,2.1-1.3,3.6c0,1.5,0.4,2.7,1.3,3.6C239.5,61.6,240.6,62,241.8,62z
			"/>
		<path class="st18" d="M253.5,63.9h-2.6v-20h2.6V63.9z"/>
		<path class="st18" d="M262.7,64.4c-2.1,0-3.8-0.7-5.1-2.1c-1.3-1.4-1.9-3.1-1.9-5.2c0-2,0.6-3.7,1.9-5.2s2.9-2.2,4.8-2.2
			c2,0,3.7,0.7,4.9,2s1.8,3.1,1.8,5.3l0,0.5h-10.8c0.1,1.4,0.5,2.5,1.4,3.3c0.8,0.8,1.8,1.2,3,1.2c1.8,0,3.1-0.8,3.8-2.4l2.3,1
			c-0.4,1.1-1.2,2-2.2,2.7C265.5,64,264.2,64.4,262.7,64.4z M266.4,55.4c-0.1-0.8-0.4-1.5-1.1-2.2c-0.7-0.7-1.6-1.1-3-1.1
			c-1,0-1.8,0.3-2.5,0.9s-1.2,1.4-1.4,2.4H266.4z"/>
		<path class="st18" d="M280.5,46.8c-0.4,0.4-0.8,0.5-1.3,0.5s-0.9-0.2-1.3-0.5s-0.5-0.8-0.5-1.3s0.2-0.9,0.5-1.3
			c0.4-0.4,0.8-0.5,1.3-0.5s0.9,0.2,1.3,0.5c0.4,0.4,0.5,0.8,0.5,1.3S280.8,46.4,280.5,46.8z M280.5,63.9h-2.6V50.2h2.6V63.9z"/>
		<path class="st18" d="M286.3,50.2v1.9h0.1c0.4-0.7,1-1.2,1.8-1.7c0.8-0.5,1.7-0.7,2.6-0.7c1.7,0,3,0.5,3.9,1.6
			c0.9,1,1.3,2.4,1.3,4.2v8.4h-2.6v-8c0-2.5-1.1-3.8-3.4-3.8c-1.1,0-1.9,0.4-2.6,1.3s-1,1.8-1,3v7.6h-2.6V50.2H286.3z"/>
		<path class="st18" d="M311.1,64.2c-1.4,0-2.5-0.4-3.3-1.1s-1.1-1.8-1.1-3.2v-7.2h-2.4v-2.4h2.4V46h2.6v4.2h3.4v2.4h-3.4v7
			c0,1.5,0.6,2.2,1.8,2.2c0.5,0,0.9-0.1,1.2-0.2l0.9,2.2C312.6,64,311.9,64.2,311.1,64.2z"/>
		<path class="st18" d="M317.8,43.9v6.3l-0.1,1.9h0.1c0.4-0.7,1-1.2,1.8-1.7c0.8-0.5,1.7-0.7,2.6-0.7c1.7,0,3,0.5,3.9,1.6
			c0.9,1,1.3,2.4,1.3,4.2v8.4h-2.6v-8c0-2.5-1.1-3.8-3.4-3.8c-1.1,0-1.9,0.4-2.6,1.3s-1,1.8-1,3v7.6h-2.6v-20H317.8z"/>
		<path class="st18" d="M336.6,64.4c-2.1,0-3.8-0.7-5.1-2.1c-1.3-1.4-1.9-3.1-1.9-5.2c0-2,0.6-3.7,1.9-5.2s2.9-2.2,4.8-2.2
			c2,0,3.7,0.7,4.9,2s1.8,3.1,1.8,5.3l0,0.5h-10.8c0.1,1.4,0.5,2.5,1.4,3.3c0.8,0.8,1.8,1.2,3,1.2c1.8,0,3.1-0.8,3.8-2.4l2.3,1
			c-0.4,1.1-1.2,2-2.2,2.7C339.4,64,338.1,64.4,336.6,64.4z M340.3,55.4c-0.1-0.8-0.4-1.5-1.1-2.2c-0.7-0.7-1.6-1.1-3-1.1
			c-1,0-1.8,0.3-2.5,0.9s-1.2,1.4-1.4,2.4H340.3z"/>
	</g>
</g>
</svg>
