<svg width="232" height="232" viewBox="0 0 232 232" fill="none" xmlns="http://www.w3.org/2000/svg">
<path d="M210 111V24C210 15.1634 202.837 8 194 8L38 8C29.1634 8 22 15.1634 22 24L22 111" stroke="#277EFF" stroke-width="16"/>
<path d="M0 103C0 97.4772 4.47715 93 10 93H30V143H10C4.47715 143 0 138.523 0 133V103Z" fill="#277EFF"/>
<path d="M232 103C232 97.4772 227.523 93 222 93H202V143H222C227.523 143 232 138.523 232 133V103Z" fill="#277EFF"/>
<rect x="30" y="60" width="172" height="172" rx="10" fill="#FF8800"/>
<path d="M78.7109 195.047C85.2046 195.047 90.4688 189.783 90.4688 183.289C90.4688 176.795 85.2046 171.531 78.7109 171.531C72.2173 171.531 66.9531 176.795 66.9531 183.289C66.9531 189.783 72.2173 195.047 78.7109 195.047Z" fill="white"/>
<path d="M66.6172 140.961C96.5156 140.961 121.039 165.484 121.039 195.383M159.336 195.383C159.336 144.32 117.68 102.664 66.6172 102.664" stroke="white" stroke-width="20"/>
</svg>
